<?xml version="1.0" encoding="UTF-8"?>
<svg version="1.1" xmlns="http://www.w3.org/2000/svg" width="1992" height="349">
<path d="M0 0 C20.18563098 -0.34907442 40.37039369 -0.61584256 60.55843353 -0.77718258 C69.93486569 -0.85412927 79.30937422 -0.95878436 88.68457031 -1.1315918 C96.8679512 -1.2823577 105.04993787 -1.37816279 113.23466921 -1.41132742 C117.55871305 -1.43067993 121.87877308 -1.47524835 126.20152283 -1.58595085 C147.90395425 -2.12033782 162.2405866 -0.68780544 179.78391075 13.26722717 C182.70204934 15.54893638 185.74589805 17.4286152 188.92578125 19.32421875 C197.79687718 24.86235321 206.66218301 30.40888212 215.5 36 C217.80953442 37.45881097 220.11931103 38.91723755 222.42919922 40.37548828 C224.2832046 41.54705066 226.13628083 42.72008387 227.98876953 43.89404297 C231.17714747 45.91310355 234.36952009 47.92572677 237.5625 49.9375 C239.04363281 50.87819336 239.04363281 50.87819336 240.5546875 51.83789062 C241.50730469 52.43666016 242.45992188 53.03542969 243.44140625 53.65234375 C244.27357666 54.17820068 245.10574707 54.70405762 245.96313477 55.24584961 C255.35481833 60.67066241 264.82081667 63.99197879 275.19140625 66.9765625 C276.74764762 67.43217812 278.30362769 67.88868711 279.85935974 68.34603882 C283.9288456 69.54004885 288.00145669 70.72300835 292.07495117 71.90325928 C297.01350262 73.33613716 301.94856991 74.78095773 306.88379574 76.22524071 C310.72537861 77.34941931 314.56752448 78.47149542 318.41175842 79.58657837 C325.32123374 81.59493587 332.19574838 83.65383741 339 86 C339 89.96 339 93.92 339 98 C343.62 98 348.24 98 353 98 C353 112.52 353 127.04 353 142 C348.38 142 343.76 142 339 142 C339 146.62 339 151.24 339 156 C324.48 156 309.96 156 295 156 C294.34 152.04 293.68 148.08 293 144 C290.85466988 138.4221417 288.42133576 133.90391459 285 129 C284.67 128.2575 284.34 127.515 284 126.75 C282.67424554 124.42992969 281.42745938 124.11531918 279 123 C278.030625 122.21625 277.06125 121.4325 276.0625 120.625 C268.13768552 114.90623666 257.60496067 112.69808279 248 114 C240.56170452 115.57060094 234.38337585 117.73049463 228.5859375 122.73046875 C227 124 227 124 224 125 C222.94193397 126.83922866 222.94193397 126.83922866 222 129 C221.03507979 130.40571941 220.05495976 131.80108675 219.0625 133.1875 C214.00352892 140.7266008 213.01271309 146.8855822 212 156 C174.38 156 136.76 156 98 156 C97.01 151.38 96.02 146.76 95 142 C89.87860946 129.56233726 81.99957778 121.2305906 69.5625 115.96875 C58.71318233 112.21321696 48.37703552 113.37201463 38 118 C27.69446116 123.42565752 21.44724956 131.37601494 17 142 C16.01 146.62 15.02 151.24 14 156 C-4.81 156 -23.62 156 -43 156 C-43 151.05 -43 146.1 -43 141 C-28.81 141 -14.62 141 0 141 C0 136.38 0 131.76 0 127 C4.62 127 9.24 127 14 127 C14 122.71 14 118.42 14 114 C-9.1 114 -32.2 114 -56 114 C-56 109.05 -56 104.1 -56 99 C-37.52 99 -19.04 99 0 99 C0 94.05 0 89.1 0 84 C9.24 84 18.48 84 28 84 C28 79.71 28 75.42 28 71 C4.9 71 -18.2 71 -42 71 C-42 66.05 -42 61.1 -42 56 C4.53 56 51.06 56 99 56 C99 51.71 99 47.42 99 43 C43.56 43 -11.88 43 -69 43 C-69 38.05 -69 33.1 -69 28 C-18.18 28 32.64 28 85 28 C85 23.71 85 19.42 85 15 C56.95 15 28.9 15 0 15 C0 10.05 0 5.1 0 0 Z " fill="#3B3C98" transform="translate(69,58)"/>
<path d="M0 0 C2.56062317 -0.39440918 2.56062317 -0.39440918 5.83911133 -0.41992188 C7.67660698 -0.44378967 7.67660698 -0.44378967 9.55122375 -0.46813965 C10.89482567 -0.46940712 12.23842899 -0.46958363 13.58203125 -0.46875 C14.95725314 -0.47584953 16.33247205 -0.48354822 17.70768738 -0.49182129 C20.59370139 -0.50528426 23.47944184 -0.50682792 26.36547852 -0.50097656 C30.05803699 -0.49509168 33.74927547 -0.52561017 37.44157887 -0.56609344 C40.28385955 -0.59199506 43.12582398 -0.59484551 45.96820641 -0.59120178 C47.32894891 -0.59289214 48.68970615 -0.60252684 50.05033302 -0.62034607 C60.78677704 -0.74543033 60.78677704 -0.74543033 65.08105469 1.89306641 C67.74369453 6.20410389 69.75602701 10.62433956 71.68359375 15.3046875 C72.11200058 16.31755829 72.54040741 17.33042908 72.98179626 18.37399292 C74.33326091 21.57775122 75.6673781 24.78836476 77 28 C77.84439049 30.01369222 78.68958901 32.02704584 79.53564453 34.04003906 C82.06101456 40.06157774 84.56343495 46.09250633 87.0625 52.125 C93.28091227 67.1246807 99.56564097 82.0915098 106 97 C107.58045485 94.62931772 108.6458687 92.68417531 109.7331543 90.09985352 C110.0655159 89.31406921 110.3978775 88.52828491 110.74031067 87.71868896 C111.09800034 86.86406067 111.45569 86.00943237 111.82421875 85.12890625 C112.20273483 84.23117493 112.58125092 83.3334436 112.97123718 82.4085083 C114.21298038 79.46108708 115.45021847 76.5117966 116.6875 73.5625 C117.54419112 71.5274858 118.40112667 69.49257448 119.25830078 67.45776367 C123.336482 57.76863595 127.39311527 48.07077655 131.41796875 38.359375 C131.75803452 37.53964706 132.09810028 36.71991913 132.44847107 35.87535095 C134.03425957 32.05191661 135.61616167 28.22697458 137.19018555 24.39868164 C145.99998669 3.04135782 145.99998669 3.04135782 151 0 C153.82804871 -0.36749268 153.82804871 -0.36749268 157.12963867 -0.35644531 C158.98627388 -0.36094696 158.98627388 -0.36094696 160.88041687 -0.36553955 C162.22627176 -0.35353663 163.57212244 -0.34105379 164.91796875 -0.328125 C166.29990941 -0.32506633 167.68185315 -0.32319103 169.063797 -0.32244873 C171.95468 -0.31785265 174.84528336 -0.30345008 177.73608398 -0.28125 C181.44867268 -0.2528886 185.161042 -0.24202988 188.87372875 -0.2375679 C191.72437244 -0.23342059 194.57497146 -0.22361021 197.42559242 -0.21169281 C198.79518589 -0.20598229 200.16478367 -0.20122618 201.53438377 -0.19742584 C203.44246357 -0.19058352 205.35051122 -0.17605711 207.25854492 -0.16113281 C208.88925179 -0.15089081 208.88925179 -0.15089081 210.55290222 -0.14044189 C213 0 213 0 214 1 C214.10005528 3.67840053 214.13440051 6.33108419 214.12698364 9.01000977 C214.12854363 9.85953752 214.13010362 10.70906527 214.13171089 11.58433628 C214.13572458 14.45337684 214.13252982 17.32236522 214.12939453 20.19140625 C214.13074841 22.23916658 214.13252826 24.28692666 214.13470459 26.33468628 C214.13928054 31.91303474 214.1374887 37.49136479 214.1343255 43.06971359 C214.13180273 48.89356284 214.13413921 54.71741046 214.13571167 60.54125977 C214.13753361 70.32340784 214.13512642 80.10554838 214.13037109 89.88769531 C214.12492843 101.21493286 214.12669107 112.54215242 214.1321975 123.86938953 C214.13672794 133.57550365 214.13737952 143.28161233 214.13475883 152.98772717 C214.13319567 158.7931822 214.13300334 164.59862876 214.13629532 170.40408325 C214.13917303 175.86062594 214.13720019 181.3171453 214.13140106 186.77368546 C214.13007293 188.78251227 214.13046848 190.79134103 214.13266373 192.80016708 C214.13537314 195.5301351 214.13199668 198.26002713 214.12698364 200.98999023 C214.12921436 201.79571252 214.13144509 202.6014348 214.13374341 203.43157291 C214.11414984 208.88585016 214.11414984 208.88585016 213 210 C211.38419992 210.10382589 209.76389376 210.13852243 208.14477539 210.14526367 C206.59295311 210.15483345 206.59295311 210.15483345 205.00978088 210.16459656 C203.32077919 210.16626579 203.32077919 210.16626579 201.59765625 210.16796875 C200.44962021 210.17129715 199.30158417 210.17462555 198.11875916 210.17805481 C195.68505251 210.18312901 193.25133888 210.18546298 190.81762695 210.18530273 C187.08207808 210.18748854 183.34682465 210.20563746 179.61132812 210.22460938 C177.25260518 210.22754325 174.89388083 210.22952808 172.53515625 210.23046875 C171.41117935 210.23765427 170.28720245 210.24483978 169.12916565 210.25224304 C168.0914653 210.24916641 167.05376495 210.24608978 165.98461914 210.24291992 C165.06830215 210.24434494 164.15198517 210.24576996 163.207901 210.24723816 C161 210 161 210 159 208 C158.73828697 205.87981987 158.73828697 205.87981987 158.7215271 203.2038269 C158.71036362 202.19137909 158.69920013 201.17893127 158.68769836 200.13580322 C158.68553818 199.02090515 158.68337799 197.90600708 158.68115234 196.75732422 C158.66608391 195.00124344 158.66608391 195.00124344 158.65071106 193.20968628 C158.62506914 189.99502289 158.6082444 186.7804561 158.59528303 183.56572104 C158.57967813 180.20775386 158.55287957 176.84987682 158.5272522 173.49197388 C158.48041747 167.13136658 158.44369618 160.77074241 158.41057932 154.41005051 C158.372391 147.16945755 158.32297229 139.928955 158.27259517 132.68843818 C158.16920556 117.79235889 158.07996812 102.8962248 158 88 C157.51578583 89.19669815 157.03157166 90.3933963 156.53268433 91.62635803 C154.70844512 96.13471641 152.88401847 100.64299891 151.05953979 105.15126038 C150.2751068 107.08965573 149.49072231 109.02807071 148.70639038 110.96650696 C131.13849706 154.38426038 131.13849706 154.38426038 128 157 C122.02394207 158.99201931 115.139749 158.30739682 108.86791992 158.35009766 C107.08621147 158.36665055 105.30456924 158.39393208 103.52319336 158.43212891 C100.9461037 158.48705714 98.37056588 158.50879393 95.79296875 158.5234375 C95.00214401 158.54610687 94.21131927 158.56877625 93.39653015 158.59213257 C88.82211336 158.57476467 85.7411813 158.01412537 82.28819275 154.66757202 C79.72107711 151.34442785 78.29830266 147.58541165 76.79296875 143.6953125 C76.42327469 142.78030975 76.05358063 141.86530701 75.67268372 140.9225769 C74.49484949 137.99620384 73.34096597 135.0610512 72.1875 132.125 C71.42537423 130.22203631 70.66171411 128.31968638 69.89648438 126.41796875 C64.50804329 112.98093515 59.27263546 99.48275895 54 86 C53.99576806 86.63298728 53.99153612 87.26597456 53.98717594 87.91814327 C53.88400653 103.29874401 53.77538964 118.67929506 53.66066074 134.0598135 C53.60531168 141.49762313 53.55182698 148.93543756 53.50268555 156.37329102 C53.45986426 162.8538435 53.41359157 169.33436042 53.36312145 175.81485802 C53.33650387 179.24828452 53.31165047 182.68170389 53.29092598 186.11517143 C53.26776274 189.94198181 53.23689601 193.76870827 53.20532227 197.59545898 C53.1995668 198.74200455 53.19381134 199.88855011 53.18788147 201.06983948 C53.17319824 202.6243129 53.17319824 202.6243129 53.15821838 204.21018982 C53.15176583 205.11631232 53.14531328 206.02243483 53.1386652 206.95601559 C53 209 53 209 52 210 C50.38437614 210.10903906 48.76402958 210.14905634 47.14477539 210.16113281 C46.1102272 210.17074036 45.07567902 210.1803479 44.00978088 210.19024658 C42.88377975 210.19449646 41.75777863 210.19874634 40.59765625 210.203125 C39.44962021 210.20882507 38.30158417 210.21452515 37.11875916 210.22039795 C34.68505785 210.22986427 32.25134363 210.23638838 29.81762695 210.24023438 C26.08196841 210.24994937 22.34685759 210.28096199 18.61132812 210.3125 C16.25260745 210.31902861 13.89388282 210.32427964 11.53515625 210.328125 C10.41117935 210.3404718 9.28720245 210.3528186 8.12916565 210.36553955 C7.0914653 210.36253845 6.05376495 210.35953735 4.98461914 210.35644531 C4.06830215 210.36009094 3.15198517 210.36373657 2.207901 210.36749268 C1.47929367 210.24622009 0.75068634 210.12494751 0 210 C-2.51149725 206.23275412 -2.27882209 203.27673109 -2.25396729 198.91479492 C-2.25708727 198.08130366 -2.26020725 197.2478124 -2.26342177 196.38906384 C-2.27142199 193.58612763 -2.26507027 190.78340671 -2.25878906 187.98046875 C-2.26149803 185.97506584 -2.26505842 183.96966393 -2.26940918 181.96426392 C-2.2785467 176.50984393 -2.27498331 171.05549938 -2.26865101 165.60107803 C-2.26359807 159.90096071 -2.26828049 154.20084999 -2.27142334 148.50073242 C-2.27506505 138.92723426 -2.27025852 129.35376692 -2.26074219 119.78027344 C-2.24985726 108.70181527 -2.25338269 97.62343071 -2.264395 86.54497433 C-2.27346204 77.04430224 -2.27475601 67.54365235 -2.26951766 58.04297733 C-2.26639475 52.36379349 -2.2659974 46.68464428 -2.27259064 41.00546265 C-2.278355 35.66705239 -2.27438389 30.32873731 -2.26280212 24.99033737 C-2.26015066 23.02750176 -2.26092887 21.06465819 -2.26532745 19.10182571 C-2.27076519 16.42950956 -2.26397041 13.75750143 -2.25396729 11.08520508 C-2.26065945 9.91075222 -2.26065945 9.91075222 -2.26748681 8.71257305 C-2.23990022 4.93208345 -2.15062623 3.22593934 0 0 Z " fill="#000000" transform="translate(510,45)"/>
<path d="M0 0 C7.08411622 -0.05058526 14.16818612 -0.08568494 21.25244141 -0.10986328 C23.66391744 -0.11993954 26.07538122 -0.13360081 28.48681641 -0.15087891 C31.94697085 -0.1750559 35.4069642 -0.18646669 38.8671875 -0.1953125 C39.95055389 -0.20563507 41.03392029 -0.21595764 42.15011597 -0.22659302 C43.1510025 -0.22674408 44.15188904 -0.22689514 45.18310547 -0.22705078 C46.06690887 -0.231492 46.95071228 -0.23593323 47.86129761 -0.24050903 C50 0 50 0 52 2 C52.24050903 4.63223267 52.24050903 4.63223267 52.22705078 8.01025391 C52.22689972 9.27141022 52.22674866 10.53256653 52.22659302 11.8319397 C52.21637898 13.21348222 52.20594697 14.59502315 52.1953125 15.9765625 C52.19158288 17.38617757 52.18873567 18.79579523 52.18673706 20.20541382 C52.17909655 23.91759382 52.15944461 27.62961761 52.1373291 31.34173584 C52.11687959 35.12884406 52.10773727 38.9159775 52.09765625 42.703125 C52.076199 50.13548793 52.04205816 57.56772208 52 65 C53.13260254 64.71632568 54.26520508 64.43265137 55.43212891 64.14038086 C65.1857152 61.78144046 74.28889286 60.38423927 84.375 60.5625 C85.52871094 60.55541016 86.68242188 60.54832031 87.87109375 60.54101562 C105.52157246 60.67035961 119.58364777 66.44965835 132 79 C132.55171875 79.51820312 133.1034375 80.03640625 133.671875 80.5703125 C147.79294949 95.07098576 150.18857601 116.67999989 150.24023438 135.82373047 C150.2498543 137.96753048 150.28091155 140.11033363 150.3125 142.25390625 C150.48129472 164.2936519 144.85797702 184.21902019 129.8125 200.75 C111.39698446 217.84708371 88.14120854 221.59116263 64 221.375 C63.09847198 221.37101196 62.19694397 221.36702393 61.26809692 221.36291504 C47.33686578 221.29067251 33.70449628 220.68811242 20 218 C18.81253174 217.7831958 18.81253174 217.7831958 17.60107422 217.56201172 C4.69180594 215.14503696 4.69180594 215.14503696 1.1328125 211.17578125 C-2.36182712 205.97222445 -2.14622399 200.98671855 -2.13371277 194.87083435 C-2.13597833 194.05675757 -2.13824388 193.24268079 -2.14057809 192.40393502 C-2.1469035 189.67869937 -2.14608967 186.95351365 -2.14526367 184.22827148 C-2.14825599 182.27345719 -2.15165869 180.31864349 -2.15544128 178.36383057 C-2.16427605 173.05617295 -2.16661912 167.74853145 -2.16725707 162.44086719 C-2.16820648 158.01213665 -2.17188499 153.58340988 -2.17542917 149.15468079 C-2.18357101 138.7099708 -2.18601357 128.26526944 -2.18530273 117.82055664 C-2.18470135 107.03746027 -2.19526588 96.25441383 -2.2110464 85.47133011 C-2.2241072 76.2177378 -2.22948728 66.96416184 -2.22884732 57.71056038 C-2.22859199 52.18171658 -2.23146271 46.6529172 -2.24202538 41.12408257 C-2.2516823 35.92764403 -2.25180212 30.73129261 -2.24450874 25.53485107 C-2.24346004 23.6256453 -2.24584262 21.71643417 -2.2518692 19.80723763 C-2.25955156 17.20544891 -2.25496942 14.60396388 -2.24723816 12.00218201 C-2.25238172 11.24294526 -2.25752529 10.48370851 -2.26282471 9.70146459 C-2.23829293 5.97765024 -2.07517291 3.16132639 0 0 Z M52 103 C51.90505267 105.37300869 51.87440681 107.71678703 51.88647461 110.09008789 C51.88632858 110.83150528 51.88618256 111.57292267 51.8860321 112.33680725 C51.88673135 114.79878621 51.89452426 117.26069043 51.90234375 119.72265625 C51.90420789 121.42516539 51.90563181 123.12767507 51.90663147 124.83018494 C51.91045698 129.31993073 51.92028753 133.80964438 51.93133545 138.29937744 C51.94154887 142.87731491 51.94612894 147.45525756 51.95117188 152.03320312 C51.96190978 161.02214957 51.97898659 170.01107212 52 179 C56.6142954 180.20983101 60.9940895 180.26050389 65.75 180.3125 C66.61882812 180.34150391 67.48765625 180.37050781 68.3828125 180.40039062 C75.85926331 180.47335899 80.85412742 178.48743413 86.6875 173.875 C95.1613246 163.33997482 96.34010061 152.09462269 96.25 139 C96.25773437 137.8759375 96.26546875 136.751875 96.2734375 135.59375 C96.24688094 124.22754059 94.98398562 114.98398562 86.6875 106.6875 C79.20710334 101.99050675 72.69548791 101.57636354 64.0625 101.75 C62.4837207 101.75773437 62.4837207 101.75773437 60.87304688 101.765625 C56.08981413 101.37177256 56.08981413 101.37177256 52 103 Z " fill="#000000" transform="translate(1659,36)"/>
<path d="M0 0 C7.08411622 -0.05058526 14.16818612 -0.08568494 21.25244141 -0.10986328 C23.66391744 -0.11993954 26.07538122 -0.13360081 28.48681641 -0.15087891 C31.94697085 -0.1750559 35.4069642 -0.18646669 38.8671875 -0.1953125 C39.95055389 -0.20563507 41.03392029 -0.21595764 42.15011597 -0.22659302 C43.1510025 -0.22674408 44.15188904 -0.22689514 45.18310547 -0.22705078 C46.06690887 -0.231492 46.95071228 -0.23593323 47.86129761 -0.24050903 C50 0 50 0 52 2 C52.2784729 4.63223267 52.2784729 4.63223267 52.31884766 8.01025391 C52.33871735 9.27141022 52.35858704 10.53256653 52.37905884 11.8319397 C52.39093614 13.21347885 52.40259895 14.59501986 52.4140625 15.9765625 C52.4327671 17.38619124 52.45233998 18.79580871 52.4727478 20.20541382 C52.52415012 23.91745362 52.56373219 27.62952977 52.60089111 31.34173584 C52.64088022 35.12895759 52.69199571 38.91602715 52.7421875 42.703125 C52.83904257 50.13531238 52.92341637 57.56757317 53 65 C54.2595752 64.71705078 55.51915039 64.43410156 56.81689453 64.14257812 C67.64915672 61.79036749 77.75770523 60.3621823 88.875 60.5 C90.14601563 60.48453125 91.41703125 60.4690625 92.7265625 60.453125 C107.15318394 60.51200917 120.23388121 63.99904528 131.05859375 73.87890625 C144.15220646 87.81726817 146.15452309 107.99295568 146.14526367 126.26733398 C146.14862228 127.23933243 146.1519809 128.21133087 146.15544128 129.21278381 C146.16485722 132.39056715 146.16688882 135.56829738 146.16796875 138.74609375 C146.17118494 140.96663942 146.17454929 143.18718487 146.17805481 145.4077301 C146.18402048 150.04322807 146.18589706 154.67870745 146.18530273 159.31420898 C146.18520059 165.26171625 146.19891814 171.20910555 146.21607494 177.15658474 C146.22716769 181.73324639 146.22922288 186.30987909 146.22869301 190.88655281 C146.22987473 193.08066278 146.2343072 195.27477345 146.24202538 197.46887016 C146.25178165 200.52547537 146.24896588 203.58181865 146.24291992 206.63842773 C146.24853943 207.54700531 146.25415894 208.45558289 146.25994873 209.39169312 C146.25575424 210.22278091 146.25155975 211.05386871 146.24723816 211.91014099 C146.24778293 212.63182181 146.24832769 213.35350264 146.24888897 214.09705257 C146 216 146 216 144 219 C141.87475586 219.3742218 141.87475586 219.3742218 139.21484375 219.37231445 C138.2204126 219.37854324 137.22598145 219.38477203 136.20141602 219.39118958 C134.58577759 219.37737495 134.58577759 219.37737495 132.9375 219.36328125 C131.835271 219.36377975 130.73304199 219.36427826 129.59741211 219.36479187 C127.26381633 219.36244828 124.93021816 219.35270312 122.59667969 219.33618164 C119.01474521 219.31259709 115.43355481 219.31561772 111.8515625 219.32226562 C109.58853721 219.31668896 107.32551506 219.30957915 105.0625 219.30078125 C103.44686157 219.30214836 103.44686157 219.30214836 101.79858398 219.30354309 C100.80415283 219.29401108 99.80972168 219.28447906 98.78515625 219.2746582 C97.90738525 219.27005081 97.02961426 219.26544342 96.12524414 219.26069641 C94 219 94 219 92 217 C91.79766908 213.97958322 91.72003384 211.0492518 91.72875977 208.02734375 C91.72353302 207.09701828 91.71830627 206.16669281 91.71292114 205.20817566 C91.70265973 203.18219699 91.69689703 201.1561918 91.69503975 199.13018799 C91.69138393 195.91788399 91.67467537 192.70589094 91.65428162 189.49365234 C91.5988169 180.35829472 91.56828023 171.2228896 91.54370117 162.08740234 C91.52776736 156.50234172 91.49747776 150.91749793 91.45893669 145.33255005 C91.44732769 143.20844843 91.4413567 141.0843079 91.44125557 138.96017456 C91.4410621 135.97582611 91.42268956 132.99206853 91.40063477 130.0078125 C91.40521194 129.13988571 91.40978912 128.27195892 91.414505 127.37773132 C91.32876823 120.02821953 90.27371445 112.87206036 85.625 107 C81.1615617 103.5992851 77.38563695 102.75031439 71.82421875 102.5859375 C70.66728516 102.54726562 69.51035156 102.50859375 68.31835938 102.46875 C67.12017578 102.4378125 65.92199219 102.406875 64.6875 102.375 C63.46998047 102.33632812 62.25246094 102.29765625 60.99804688 102.2578125 C57.99884772 102.16371998 54.99965177 102.07807791 52 102 C52.00184359 102.59083563 52.00368717 103.18167126 52.00558662 103.790411 C52.04971602 118.15318843 52.08283235 132.51595983 52.10362434 146.8787899 C52.11394592 153.82449144 52.12802301 160.77014778 52.15087891 167.71582031 C52.17290879 174.41365814 52.1845554 181.11143922 52.18975449 187.80931473 C52.1934615 190.36988694 52.20069992 192.93045647 52.21146011 195.49100876 C52.22589196 199.06616615 52.22798143 202.64112696 52.22705078 206.21630859 C52.23424133 207.28445297 52.24143188 208.35259735 52.24884033 209.45310974 C52.246091 210.42348679 52.24334167 211.39386383 52.24050903 212.39364624 C52.24235262 213.2398522 52.24419621 214.08605816 52.24609566 214.95790672 C52 217 52 217 50 219 C47.86129761 219.24050903 47.86129761 219.24050903 45.18310547 219.22705078 C44.18221893 219.22689972 43.1813324 219.22674866 42.15011597 219.22659302 C40.52506638 219.21110916 40.52506638 219.21110916 38.8671875 219.1953125 C37.76021515 219.1924826 36.6532428 219.18965271 35.51272583 219.18673706 C31.96670863 219.17551519 28.42094125 219.15040691 24.875 219.125 C22.47526406 219.1149728 20.07552417 219.1058465 17.67578125 219.09765625 C11.78376849 219.07556932 5.89190209 219.04207207 0 219 C-2.59734307 215.11776329 -2.2788005 211.02526396 -2.25396729 206.53552246 C-2.25708727 205.67329748 -2.26020725 204.81107249 -2.26342177 203.92271948 C-2.27141023 201.0284886 -2.2650748 198.13446688 -2.25878906 195.24023438 C-2.26149855 193.16734189 -2.26505924 191.09445036 -2.26940918 189.02156067 C-2.2785405 183.38738719 -2.27498584 177.7532868 -2.26865101 172.11911201 C-2.26359488 166.22861659 -2.26828138 160.3381275 -2.27142334 154.44763184 C-2.27506411 144.55475742 -2.27026097 134.66191285 -2.26074219 124.76904297 C-2.24985744 113.32420062 -2.25338294 101.87942953 -2.264395 90.43458891 C-2.2734647 80.61626179 -2.2747547 70.79795614 -2.26951766 60.97962618 C-2.26639622 55.11207187 -2.2659934 49.24455107 -2.27259064 43.3769989 C-2.27835885 37.86128585 -2.27437678 32.34566486 -2.26280212 26.82996178 C-2.26015273 24.80304301 -2.26092537 22.77611653 -2.26532745 20.74920082 C-2.27077329 17.98752103 -2.26396042 15.22613829 -2.25396729 12.46447754 C-2.25842873 11.65786729 -2.26289017 10.85125705 -2.26748681 10.02020407 C-2.24063127 6.20726484 -2.16104889 3.2301098 0 0 Z " fill="#000000" transform="translate(1292,36)"/>
<path d="M0 0 C3.04975728 -0.00970025 6.09883762 -0.04080618 9.1484375 -0.07226562 C29.24452952 -0.181443 49.6701857 1.74166148 65.21875 15.97851562 C78.1430304 29.60826985 80.47474488 48.3233238 80.46557617 66.30224609 C80.46893478 67.26434494 80.4722934 68.22644379 80.47575378 69.21769714 C80.48518252 72.36845216 80.48720207 75.51915368 80.48828125 78.66992188 C80.49149687 80.86947654 80.49486117 83.06903099 80.49836731 85.26858521 C80.50433644 89.86298113 80.50620923 94.45735829 80.50561523 99.05175781 C80.50551314 104.94660718 80.51922347 110.84133736 80.53638744 116.73615837 C80.54748133 121.27078814 80.54953533 125.80538871 80.54900551 130.34003067 C80.55018733 132.51460307 80.55462039 134.68917618 80.56233788 136.8637352 C80.57209519 139.89410683 80.56927781 142.92421429 80.56323242 145.95458984 C80.56885193 146.85538773 80.57447144 147.75618561 80.58026123 148.6842804 C80.57606674 149.5083992 80.57187225 150.33251801 80.56755066 151.18161011 C80.56809543 151.8972154 80.56864019 152.6128207 80.56920147 153.35011101 C80.3203125 155.24023437 80.3203125 155.24023437 78.3203125 158.24023438 C76.19506836 158.61445618 76.19506836 158.61445618 73.53515625 158.61254883 C72.5407251 158.61877762 71.54629395 158.62500641 70.52172852 158.63142395 C68.90609009 158.61760933 68.90609009 158.61760933 67.2578125 158.60351562 C66.1555835 158.60401413 65.05335449 158.60451263 63.91772461 158.60502625 C61.58412883 158.60268266 59.25053066 158.59293749 56.91699219 158.57641602 C53.33505771 158.55283146 49.75386731 158.55585209 46.171875 158.5625 C43.90884971 158.55692333 41.64582756 158.54981353 39.3828125 158.54101562 C37.76717407 158.54238274 37.76717407 158.54238274 36.11889648 158.54377747 C35.12446533 158.53424545 34.13003418 158.52471344 33.10546875 158.51489258 C32.22769775 158.51028519 31.34992676 158.5056778 30.44555664 158.50093079 C28.3203125 158.24023438 28.3203125 158.24023438 26.3203125 156.24023438 C26.11794433 153.18951664 26.04035108 150.22798863 26.04907227 147.17578125 C26.04384552 146.23570221 26.03861877 145.29562317 26.03323364 144.32705688 C26.02297203 142.27979711 26.01720949 140.23251109 26.01535225 138.18522644 C26.0116966 134.93931878 25.99498857 131.6937189 25.97459412 128.44787598 C25.9191274 119.21693669 25.88859105 109.9859504 25.86401367 100.75488281 C25.84808114 95.1114686 25.81779293 89.46826904 25.77924919 83.82496643 C25.76763917 81.67853588 25.76166919 79.5320668 25.76156807 77.38560486 C25.76137463 74.37012564 25.74300432 71.35523147 25.72094727 68.33984375 C25.72552444 67.46256622 25.73010162 66.5852887 25.7348175 65.681427 C25.6609917 59.28855953 25.16252509 51.64182552 20.90390873 46.54506683 C16.47852577 42.72403616 12.78431226 42.10994329 7.12109375 41.92382812 C5.91259766 41.88193359 4.70410156 41.84003906 3.45898438 41.796875 C1.5650293 41.73790039 1.5650293 41.73790039 -0.3671875 41.67773438 C-1.64142578 41.63455078 -2.91566406 41.59136719 -4.22851562 41.546875 C-7.37879602 41.44068577 -10.52915589 41.33863905 -13.6796875 41.24023438 C-13.67784391 41.83107 -13.67600033 42.42190563 -13.67410088 43.03064537 C-13.62997148 57.39342281 -13.59685515 71.75619421 -13.57606316 86.11902428 C-13.56574158 93.06472581 -13.55166449 100.01038216 -13.52880859 106.95605469 C-13.50677871 113.65389251 -13.4951321 120.35167359 -13.48993301 127.0495491 C-13.486226 129.61012132 -13.47898758 132.17069084 -13.46822739 134.73124313 C-13.45379554 138.30640052 -13.45170607 141.88136133 -13.45263672 145.45654297 C-13.44544617 146.52468735 -13.43825562 147.59283173 -13.43084717 148.69334412 C-13.4335965 149.66372116 -13.43634583 150.63409821 -13.43917847 151.63388062 C-13.43733488 152.48008657 -13.43549129 153.32629253 -13.43359184 154.1981411 C-13.6796875 156.24023438 -13.6796875 156.24023438 -15.6796875 158.24023438 C-17.81838989 158.48074341 -17.81838989 158.48074341 -20.49658203 158.46728516 C-21.49746857 158.46713409 -22.4983551 158.46698303 -23.52957153 158.46682739 C-25.15462112 158.45134354 -25.15462112 158.45134354 -26.8125 158.43554688 C-27.91947235 158.43271698 -29.0264447 158.42988708 -30.16696167 158.42697144 C-33.71297887 158.41574957 -37.25874625 158.39064128 -40.8046875 158.36523438 C-43.20442344 158.35520717 -45.60416333 158.34608087 -48.00390625 158.33789062 C-53.89591901 158.3158037 -59.78778541 158.28230644 -65.6796875 158.24023438 C-67.64818339 154.93945395 -67.93074706 152.46131557 -67.93365479 148.64323425 C-67.93929443 147.50352676 -67.94493408 146.36381927 -67.95074463 145.1895752 C-67.94669617 143.94325317 -67.94264771 142.69693115 -67.93847656 141.4128418 C-67.9419812 140.09701614 -67.94548584 138.78119049 -67.94909668 137.42549133 C-67.95821435 133.81789776 -67.95467831 130.21041859 -67.94833851 126.60282302 C-67.94327213 122.82377933 -67.94797203 119.04474538 -67.95111084 115.26570129 C-67.95474996 108.91629277 -67.94995421 102.56693076 -67.94042969 96.2175293 C-67.92955928 88.88645857 -67.93306061 81.55549922 -67.9440825 74.22443122 C-67.95317371 67.92449595 -67.95443127 61.62459411 -67.94920516 55.3246544 C-67.94609372 51.5646608 -67.94565306 47.80471944 -67.95227814 44.04472923 C-67.95807717 40.50623712 -67.95400814 36.96788771 -67.94248962 33.42941093 C-67.93860458 31.51876901 -67.94450787 29.60811495 -67.95074463 27.69747925 C-67.88207885 13.71792465 -67.88207885 13.71792465 -63.6796875 8.99023438 C-45.98223738 -1.33327819 -19.76910141 0.03792027 0 0 Z " fill="#000000" transform="translate(1174.6796875,96.759765625)"/>
<path d="M0 0 C7.08411622 -0.05058526 14.16818612 -0.08568494 21.25244141 -0.10986328 C23.66391744 -0.11993954 26.07538122 -0.13360081 28.48681641 -0.15087891 C31.94697085 -0.1750559 35.4069642 -0.18646669 38.8671875 -0.1953125 C39.95055389 -0.20563507 41.03392029 -0.21595764 42.15011597 -0.22659302 C43.1510025 -0.22674408 44.15188904 -0.22689514 45.18310547 -0.22705078 C46.06690887 -0.231492 46.95071228 -0.23593323 47.86129761 -0.24050903 C50 0 50 0 52 2 C52.20750566 4.96482916 52.29046929 7.83823102 52.28710938 10.80493164 C52.29394241 11.71735626 52.30077545 12.62978088 52.30781555 13.56985474 C52.32143033 15.55653979 52.33046637 17.54326017 52.33552551 19.52998543 C52.34379952 22.67900454 52.36429443 25.82773152 52.38806152 28.97666931 C52.4363786 35.67190287 52.46921383 42.36716593 52.5 49.0625 C52.53570901 56.79732169 52.57780442 64.53200286 52.63594055 72.26669121 C52.65592771 75.36027302 52.66431512 78.45374579 52.67224121 81.54737854 C52.68522526 83.4613585 52.69874726 85.3753349 52.71289062 87.28930664 C52.71141777 88.56853752 52.71141777 88.56853752 52.70991516 89.87361145 C52.79185386 97.88435407 53.52042153 105.77993795 59 112 C65.54174134 115.85397853 72.01420453 115.34544246 79.4375 115.1875 C80.64599609 115.17396484 81.85449219 115.16042969 83.09960938 115.14648438 C86.06687082 115.11129946 89.03319937 115.06206696 92 115 C91.99815641 114.41947184 91.99631283 113.83894367 91.99441338 113.24082375 C91.95028335 99.12840147 91.91716735 85.01598952 91.89637566 70.90351295 C91.88605422 64.0788793 91.8719774 57.25429164 91.84912109 50.4296875 C91.82709071 43.84856644 91.81544449 37.26748074 91.81024551 30.68632126 C91.80653859 28.1704063 91.79930034 25.65449408 91.78853989 23.1385994 C91.77410737 19.62570702 91.7720186 16.11301471 91.77294922 12.60009766 C91.76575867 11.55065475 91.75856812 10.50121185 91.75115967 9.41996765 C91.753909 8.46641891 91.75665833 7.51287018 91.75949097 6.53042603 C91.75764738 5.69896875 91.75580379 4.86751148 91.75390434 4.01085854 C92 2 92 2 94 0 C96.12524414 -0.26069641 96.12524414 -0.26069641 98.78515625 -0.2746582 C99.7795874 -0.28419022 100.77401855 -0.29372223 101.79858398 -0.30354309 C103.41422241 -0.30217598 103.41422241 -0.30217598 105.0625 -0.30078125 C106.164729 -0.30506638 107.26695801 -0.3093515 108.40258789 -0.31376648 C110.73615837 -0.31951699 113.06974677 -0.32000477 115.40332031 -0.31567383 C118.98533498 -0.31251294 122.56652499 -0.33596815 126.1484375 -0.36132812 C128.41145729 -0.36360084 130.6744793 -0.36430475 132.9375 -0.36328125 C134.55313843 -0.37709587 134.55313843 -0.37709587 136.20141602 -0.39118958 C137.69306274 -0.38184639 137.69306274 -0.38184639 139.21484375 -0.37231445 C140.09261475 -0.37294388 140.97038574 -0.3735733 141.87475586 -0.3742218 C142.57608643 -0.25072861 143.27741699 -0.12723541 144 0 C146.25796548 3.38694822 146.25252542 4.53912814 146.26069641 8.50798035 C146.26778122 9.65328217 146.27486603 10.79858398 146.28216553 11.97859192 C146.27968811 13.23628891 146.27721069 14.4939859 146.2746582 15.78979492 C146.27900527 17.12699671 146.2841884 18.46419601 146.29014587 19.8013916 C146.30355304 23.43596071 146.30411227 27.07042592 146.30158257 30.70501494 C146.30051325 33.74149103 146.30539565 36.77794607 146.310188 39.81441766 C146.32129077 46.98282111 146.32171736 54.15117218 146.31567383 61.31958008 C146.30964304 68.70461006 146.32192041 76.08944908 146.3432439 83.47444648 C146.36089038 89.82023937 146.36685616 96.16597168 146.36360615 102.51178819 C146.36179677 106.29924951 146.36439414 110.08657487 146.37832069 113.8740139 C146.39094281 117.44044961 146.38891388 121.0065895 146.37590981 124.57302094 C146.37243481 126.4966103 146.38369191 128.42020886 146.39547729 130.34376526 C146.35559426 136.9360623 145.92053164 142.04455341 143 148 C138.96277556 151.62140545 133.56737483 152.13200805 128.375 153.0625 C127.14523437 153.30323242 127.14523437 153.30323242 125.890625 153.54882812 C109.94166493 156.51247817 93.98599366 157.35164515 77.79223633 157.31567383 C74.80448586 157.31249146 71.81770898 157.33617273 68.83007812 157.36132812 C48.9457169 157.42730595 28.32252668 155.46127243 13.06640625 141.19140625 C-3.1997304 123.80587955 -2.15989203 98.710821 -2.16796875 76.50390625 C-2.17118629 74.42170693 -2.17455073 72.33950782 -2.17805481 70.25730896 C-2.18401449 65.91445389 -2.18589766 61.57161864 -2.18530273 57.22875977 C-2.18520056 51.6613965 -2.19892354 46.09415919 -2.21607494 40.5268259 C-2.22717586 36.23664258 -2.22922263 31.94649009 -2.22869301 27.65629387 C-2.22987328 25.60256448 -2.23429767 23.54883429 -2.24202538 21.49511909 C-2.2517992 18.63280362 -2.24895901 15.77076702 -2.24291992 12.90844727 C-2.24853943 12.06114044 -2.25415894 11.21383362 -2.25994873 10.34085083 C-2.2218761 3.25609623 -2.2218761 3.25609623 0 0 Z " fill="#000000" transform="translate(1475,100)"/>
<path d="M0 0 C2.17252464 -0.00960126 4.34405838 -0.0406218 6.51635742 -0.07226562 C26.77982132 -0.22625953 46.36543329 4.73702834 61.5222168 18.99023438 C76.78625762 35.31557865 79.64490594 56.04730284 79.58789062 77.50195312 C79.58473947 79.97245854 79.60824193 82.4417517 79.63354492 84.91210938 C79.71350897 104.90723848 76.39291863 123.44962229 63.2722168 139.24023438 C62.75143555 139.88605469 62.2306543 140.531875 61.6940918 141.19726562 C51.33734159 152.78322609 34.25748702 158.41020432 19.2722168 160.24023438 C14.65361222 160.44685533 10.03658805 160.46813516 5.4140625 160.48046875 C3.23942741 160.49010275 1.06576871 160.52115323 -1.10864258 160.55273438 C-19.25958942 160.69062301 -36.26465299 156.62231044 -50.7277832 145.24023438 C-51.5630957 144.61375 -52.3984082 143.98726562 -53.2590332 143.34179688 C-66.95799747 131.68033679 -72.16438327 112.40168381 -73.5534668 95.13183594 C-75.09666703 69.53286732 -74.46720372 41.84813796 -57.4777832 20.99023438 C-42.52470775 4.91978625 -21.10820191 0.0561575 0 0 Z M-13.4152832 46.86523438 C-20.56690693 56.15544654 -19.90888532 68.88350326 -19.9152832 79.99023438 C-19.9275293 81.09367187 -19.93977539 82.19710937 -19.95239258 83.33398438 C-19.97095751 93.87886452 -19.9821847 106.67393359 -12.23950195 114.80273438 C-6.33141425 119.96314845 -0.12895207 119.73560946 7.29956055 119.58007812 C12.47418223 119.13741137 15.6803568 117.99363305 19.2722168 114.24023438 C26.44144234 105.48508924 25.61715089 93.45924662 25.58789062 82.78466797 C25.58473284 80.37746763 25.60824118 77.97150208 25.63354492 75.56445312 C25.67690404 64.96916825 25.65388263 53.64713157 18.2722168 45.24023438 C13.55722472 41.16819576 9.31524762 40.86792291 3.2097168 40.80273438 C2.52490234 40.79258301 1.84008789 40.78243164 1.13452148 40.77197266 C-5.05371631 40.8780482 -9.01891718 42.57110942 -13.4152832 46.86523438 Z " fill="#000000" transform="translate(1000.727783203125,96.759765625)"/>
<path d="M0 0 C2.17252464 -0.00960126 4.34405838 -0.0406218 6.51635742 -0.07226562 C26.77982132 -0.22625953 46.36543329 4.73702834 61.5222168 18.99023438 C76.78625762 35.31557865 79.64490594 56.04730284 79.58789062 77.50195312 C79.58473947 79.97245854 79.60824193 82.4417517 79.63354492 84.91210938 C79.71350897 104.90723848 76.39291863 123.44962229 63.2722168 139.24023438 C62.75143555 139.88605469 62.2306543 140.531875 61.6940918 141.19726562 C51.33734159 152.78322609 34.25748702 158.41020432 19.2722168 160.24023438 C14.65361222 160.44685533 10.03658805 160.46813516 5.4140625 160.48046875 C3.23942741 160.49010275 1.06576871 160.52115323 -1.10864258 160.55273438 C-19.25958942 160.69062301 -36.26465299 156.62231044 -50.7277832 145.24023438 C-51.5630957 144.61375 -52.3984082 143.98726562 -53.2590332 143.34179688 C-66.95799747 131.68033679 -72.16438327 112.40168381 -73.5534668 95.13183594 C-75.09666703 69.53286732 -74.46720372 41.84813796 -57.4777832 20.99023438 C-42.52470775 4.91978625 -21.10820191 0.0561575 0 0 Z M-13.4152832 46.86523438 C-20.56690693 56.15544654 -19.90888532 68.88350326 -19.9152832 79.99023438 C-19.9275293 81.09367187 -19.93977539 82.19710937 -19.95239258 83.33398438 C-19.97095751 93.87886452 -19.9821847 106.67393359 -12.23950195 114.80273438 C-6.33141425 119.96314845 -0.12895207 119.73560946 7.29956055 119.58007812 C12.47418223 119.13741137 15.6803568 117.99363305 19.2722168 114.24023438 C26.44144234 105.48508924 25.61715089 93.45924662 25.58789062 82.78466797 C25.58473284 80.37746763 25.60824118 77.97150208 25.63354492 75.56445312 C25.67690404 64.96916825 25.65388263 53.64713157 18.2722168 45.24023438 C13.55722472 41.16819576 9.31524762 40.86792291 3.2097168 40.80273438 C2.52490234 40.79258301 1.84008789 40.78243164 1.13452148 40.77197266 C-5.05371631 40.8780482 -9.01891718 42.57110942 -13.4152832 46.86523438 Z " fill="#000000" transform="translate(828.727783203125,96.759765625)"/>
<path d="M0 0 C6.19865415 6.19865415 9.20186525 12.69906758 9.5 21.4375 C9.20097666 29.97960017 6.63592188 37.15904591 0.77734375 43.46484375 C-7.02008468 50.19976545 -14.97148359 51.70950048 -25 51 C-33.33510714 49.64469803 -39.07488359 44.70126937 -44.3828125 38.34375 C-48.64317757 31.90586501 -49.64902011 23.2383481 -48.4375 15.75 C-46.24322124 7.1246904 -41.13983042 1.14668465 -34 -4 C-22.50528813 -10.71960672 -9.81639231 -8.26956686 0 0 Z " fill="#3B3C98" transform="translate(343,195)"/>
<path d="M0 0 C5.67196621 6.11009304 9.02881725 12.63943499 9.05859375 21.140625 C8.39593781 30.8643807 4.79596903 37.84283607 -2.25390625 44.515625 C-8.45992015 49.40438869 -15.3870263 50.73870296 -23.171875 50.48828125 C-30.89621167 49.51865366 -37.83645789 46.05093417 -42.94140625 40.140625 C-48.63791745 31.63284853 -49.78144871 24.34114057 -48.94140625 14.140625 C-47.01954768 6.52265549 -42.08724504 -0.17324473 -35.51171875 -4.43359375 C-23.15178968 -10.98924002 -10.20847681 -9.77713272 0 0 Z " fill="#3B3C98" transform="translate(146.94140625,195.859375)"/>
</svg>
